<svg xmlns="http://www.w3.org/2000/svg" xmlns:xlink="http://www.w3.org/1999/xlink" contentScriptType="text/ecmascript" width="375" viewBox="0 0 375 375" height="375" version="1.0"><defs><g id="j"><path d="M 12.65625 0.234375 C 8.6875 0.234375 5.757812 -0.976562 3.875 -3.40625 C 2.382812 -5.3125 1.640625 -7.726562 1.640625 -10.65625 L 1.640625 -22.9375 L 7.6875 -22.9375 L 7.6875 -10.546875 C 7.6875 -6.441406 9.34375 -4.390625 12.65625 -4.390625 C 15.90625 -4.390625 17.53125 -6.441406 17.53125 -10.546875 L 17.53125 -22.9375 L 23.71875 -22.9375 L 23.71875 -10.65625 C 23.71875 -7.707031 22.972656 -5.289062 21.484375 -3.40625 C 19.546875 -0.976562 16.601562 0.234375 12.65625 0.234375 Z M 12.65625 0.234375"/></g><g id="k"><path d="M 18.5 -11.84375 C 19.625 -11.425781 20.476562 -10.742188 21.0625 -9.796875 C 21.65625 -8.859375 21.953125 -7.867188 21.953125 -6.828125 C 21.953125 -4.734375 21.144531 -3.070312 19.53125 -1.84375 C 17.925781 -0.613281 15.582031 0 12.5 0 L 1.84375 0 L 1.84375 -22.9375 L 11.40625 -22.9375 C 14.488281 -22.9375 16.832031 -22.3125 18.4375 -21.0625 C 20.050781 -19.820312 20.859375 -18.160156 20.859375 -16.078125 C 20.859375 -15.210938 20.660156 -14.351562 20.265625 -13.5 C 19.878906 -12.65625 19.289062 -12.101562 18.5 -11.84375 Z M 7.875 -13.40625 L 11.40625 -13.40625 C 13.65625 -13.40625 14.78125 -14.191406 14.78125 -15.765625 C 14.78125 -16.546875 14.472656 -17.164062 13.859375 -17.625 C 13.242188 -18.082031 12.425781 -18.3125 11.40625 -18.3125 L 7.875 -18.3125 Z M 12.546875 -4.625 C 14.796875 -4.625 15.921875 -5.410156 15.921875 -6.984375 C 15.921875 -7.785156 15.640625 -8.335938 15.078125 -8.640625 C 14.515625 -8.941406 13.671875 -9.09375 12.546875 -9.09375 L 7.875 -9.09375 L 7.875 -4.625 Z M 12.546875 -4.625"/></g><g id="l"><path d="M 1.84375 -22.9375 L 19.125 -22.9375 L 19.125 -18.3125 L 7.875 -18.3125 L 7.875 -13.71875 L 16.421875 -13.71875 L 16.421875 -9.015625 L 7.875 -9.015625 L 7.875 -4.625 L 19.125 -4.625 L 19.125 0 L 1.84375 0 Z M 1.84375 -22.9375"/></g><g id="m"><path d="M 21.71875 -14.8125 C 21.71875 -13.476562 21.367188 -12.160156 20.671875 -10.859375 C 19.984375 -9.554688 18.972656 -8.5 17.640625 -7.6875 L 21.28125 0 L 14.625 0 L 11.484375 -6.671875 L 7.875 -6.671875 L 7.875 0 L 1.84375 0 L 1.84375 -22.9375 L 12.5 -22.9375 C 15.53125 -22.9375 17.820312 -22.15625 19.375 -20.59375 C 20.9375 -19.039062 21.71875 -17.113281 21.71875 -14.8125 Z M 7.875 -11.25 L 12.234375 -11.25 C 13.253906 -11.25 14.085938 -11.566406 14.734375 -12.203125 C 15.390625 -12.847656 15.71875 -13.707031 15.71875 -14.78125 C 15.71875 -15.851562 15.390625 -16.707031 14.734375 -17.34375 C 14.085938 -17.988281 13.253906 -18.3125 12.234375 -18.3125 L 7.875 -18.3125 Z M 7.875 -11.25"/></g><g id="n"><path d="M 2.84375 -1.6875 L 6.40625 -1.6875 L 6.40625 0 L 0.8125 0 L 0.8125 -10.046875 L 2.84375 -10.046875 Z M 2.84375 -1.6875"/></g><g id="o"><path d="M 5.609375 -2.0625 L 2.84375 -2.0625 L 2.296875 0 L 0.15625 0 L 3.296875 -10.046875 L 5.15625 -10.046875 L 8.3125 0 L 6.140625 0 Z M 3.28125 -3.75 L 5.15625 -3.75 L 4.21875 -7.328125 Z M 3.28125 -3.75"/></g><g id="p"><path d="M 0.8125 0 L 0.8125 -10.046875 L 3.921875 -10.046875 C 4.960938 -10.046875 5.753906 -9.8125 6.296875 -9.34375 C 6.847656 -8.882812 7.125 -8.203125 7.125 -7.296875 C 7.125 -6.785156 7.007812 -6.34375 6.78125 -5.96875 C 6.5625 -5.601562 6.253906 -5.335938 5.859375 -5.171875 C 6.304688 -5.046875 6.648438 -4.785156 6.890625 -4.390625 C 7.140625 -4.003906 7.265625 -3.523438 7.265625 -2.953125 C 7.265625 -1.972656 6.992188 -1.234375 6.453125 -0.734375 C 5.921875 -0.242188 5.148438 0 4.140625 0 Z M 2.84375 -4.375 L 2.84375 -1.6875 L 4.140625 -1.6875 C 4.503906 -1.6875 4.78125 -1.796875 4.96875 -2.015625 C 5.15625 -2.242188 5.25 -2.566406 5.25 -2.984375 C 5.25 -3.890625 4.921875 -4.351562 4.265625 -4.375 Z M 2.84375 -5.84375 L 3.890625 -5.84375 C 4.691406 -5.84375 5.09375 -6.253906 5.09375 -7.078125 C 5.09375 -7.535156 5 -7.863281 4.8125 -8.0625 C 4.625 -8.257812 4.328125 -8.359375 3.921875 -8.359375 L 2.84375 -8.359375 Z M 2.84375 -5.84375"/></g><g id="q"><path d="M 5.046875 -2.640625 C 5.046875 -3.046875 4.941406 -3.351562 4.734375 -3.5625 C 4.523438 -3.769531 4.144531 -3.988281 3.59375 -4.21875 C 2.582031 -4.601562 1.859375 -5.050781 1.421875 -5.5625 C 0.984375 -6.070312 0.765625 -6.675781 0.765625 -7.375 C 0.765625 -8.226562 1.0625 -8.910156 1.65625 -9.421875 C 2.257812 -9.929688 3.023438 -10.1875 3.953125 -10.1875 C 4.566406 -10.1875 5.113281 -10.054688 5.59375 -9.796875 C 6.082031 -9.535156 6.457031 -9.164062 6.71875 -8.6875 C 6.976562 -8.21875 7.109375 -7.679688 7.109375 -7.078125 L 5.078125 -7.078125 C 5.078125 -7.546875 4.976562 -7.90625 4.78125 -8.15625 C 4.582031 -8.40625 4.296875 -8.53125 3.921875 -8.53125 C 3.566406 -8.53125 3.289062 -8.425781 3.09375 -8.21875 C 2.894531 -8.007812 2.796875 -7.726562 2.796875 -7.375 C 2.796875 -7.09375 2.90625 -6.835938 3.125 -6.609375 C 3.34375 -6.390625 3.734375 -6.160156 4.296875 -5.921875 C 5.273438 -5.566406 5.984375 -5.128906 6.421875 -4.609375 C 6.867188 -4.097656 7.09375 -3.445312 7.09375 -2.65625 C 7.09375 -1.78125 6.8125 -1.09375 6.25 -0.59375 C 5.695312 -0.101562 4.941406 0.140625 3.984375 0.140625 C 3.335938 0.140625 2.75 0.0078125 2.21875 -0.25 C 1.6875 -0.519531 1.269531 -0.90625 0.96875 -1.40625 C 0.664062 -1.90625 0.515625 -2.492188 0.515625 -3.171875 L 2.546875 -3.171875 C 2.546875 -2.585938 2.65625 -2.164062 2.875 -1.90625 C 3.101562 -1.644531 3.472656 -1.515625 3.984375 -1.515625 C 4.691406 -1.515625 5.046875 -1.890625 5.046875 -2.640625 Z M 5.046875 -2.640625"/></g><clipPath id="a"><path d="M 60.164062 115.46875 L 202 115.46875 L 202 180 L 60.164062 180 Z M 60.164062 115.46875"/></clipPath><clipPath id="b"><path d="M 158.5625 121.933594 L 83.199219 121.933594 C 74.78125 121.933594 66.90625 119.632812 60.164062 115.632812 L 60.164062 120.667969 C 60.164062 144.214844 79.296875 163.300781 102.898438 163.300781 L 172.058594 163.300781 L 172.117188 163.335938 C 180.996094 163.566406 189.796875 167.046875 196.5625 173.785156 C 198.375 175.59375 199.945312 177.539062 201.285156 179.601562 L 201.285156 164.570312 C 201.296875 141.023438 182.164062 121.933594 158.5625 121.933594 Z M 158.5625 121.933594"/></clipPath><clipPath id="d"><path d="M 85 170 L 150 170 L 150 213 L 85 213 Z M 85 170"/></clipPath><clipPath id="e"><path d="M 145.792969 173.785156 C 146.855469 172.726562 147.984375 171.746094 149.140625 170.847656 L 85.414062 170.847656 C 86.085938 193.808594 104.941406 212.226562 128.113281 212.226562 L 137.777344 212.226562 C 132.734375 199.371094 135.398438 184.152344 145.792969 173.785156 Z M 145.792969 173.785156"/></clipPath><clipPath id="g"><path d="M 142 170 L 201 170 L 201 252 L 142 252 Z M 142 170"/></clipPath><clipPath id="h"><path d="M 172.210938 170.328125 C 169.910156 170.25 167.683594 170.433594 165.523438 170.847656 C 152.140625 173.441406 142.027344 185.191406 142.027344 199.3125 C 142.027344 203.957031 143.136719 208.332031 145.085938 212.226562 C 145.527344 213.113281 146 213.976562 146.53125 214.808594 L 146.507812 214.820312 L 171.101562 251.902344 L 195.046875 215.773438 C 195.234375 215.511719 195.40625 215.234375 195.589844 214.957031 L 195.753906 214.714844 C 198.753906 209.933594 200.40625 204.230469 200.164062 198.113281 C 199.550781 182.910156 187.449219 170.882812 172.210938 170.328125 Z M 171.183594 213.804688 C 168.851562 213.804688 166.65625 213.230469 164.726562 212.226562 C 160.222656 209.886719 157.140625 205.210938 157.140625 199.796875 C 157.140625 192.054688 163.421875 185.789062 171.183594 185.789062 C 171.667969 185.789062 172.140625 185.8125 172.613281 185.859375 C 179.691406 186.574219 185.222656 192.539062 185.222656 199.796875 C 185.222656 207.539062 178.941406 213.804688 171.183594 213.804688 Z M 171.183594 213.804688"/></clipPath><linearGradient x1="51.087" gradientTransform="matrix(1.15464 0 0 1.15197 60.163 115.634)" xmlns:xlink="http://www.w3.org/1999/xlink" y1="-13.77" x2="73.319" gradientUnits="userSpaceOnUse" y2="68.713" xlink:type="simple" xlink:actuate="onLoad" id="c" xlink:show="other"><stop stop-color="#58C9F4" offset="0"/><stop stop-color="#58C9F4" offset=".125"/><stop stop-color="#58C8F4" offset=".129"/><stop stop-color="#57C8F4" offset=".133"/><stop stop-color="#57C7F4" offset=".137"/><stop stop-color="#57C7F4" offset=".141"/><stop stop-color="#56C6F4" offset=".145"/><stop stop-color="#56C6F4" offset=".148"/><stop stop-color="#56C5F5" offset=".152"/><stop stop-color="#56C5F5" offset=".156"/><stop stop-color="#55C4F5" offset=".16"/><stop stop-color="#55C4F5" offset=".164"/><stop stop-color="#55C3F5" offset=".168"/><stop stop-color="#54C3F5" offset=".172"/><stop stop-color="#54C2F5" offset=".18"/><stop stop-color="#54C1F5" offset=".188"/><stop stop-color="#53C0F5" offset=".195"/><stop stop-color="#53BFF5" offset=".203"/><stop stop-color="#52BEF5" offset=".211"/><stop stop-color="#52BEF6" offset=".219"/><stop stop-color="#51BDF6" offset=".227"/><stop stop-color="#51BCF6" offset=".234"/><stop stop-color="#50BBF6" offset=".242"/><stop stop-color="#50BAF6" offset=".25"/><stop stop-color="#50B9F6" offset=".258"/><stop stop-color="#4FB8F6" offset=".266"/><stop stop-color="#4FB7F6" offset=".273"/><stop stop-color="#4EB6F6" offset=".281"/><stop stop-color="#4EB5F6" offset=".289"/><stop stop-color="#4DB4F7" offset=".297"/><stop stop-color="#4DB3F7" offset=".305"/><stop stop-color="#4CB2F7" offset=".313"/><stop stop-color="#4CB1F7" offset=".32"/><stop stop-color="#4BB0F7" offset=".328"/><stop stop-color="#4BAFF7" offset=".336"/><stop stop-color="#4BAEF7" offset=".344"/><stop stop-color="#4AADF7" offset=".352"/><stop stop-color="#4AADF7" offset=".359"/><stop stop-color="#49ACF7" offset=".367"/><stop stop-color="#49ABF8" offset=".372"/><stop stop-color="#49AAF8" offset=".375"/><stop stop-color="#48AAF8" offset=".383"/><stop stop-color="#48A9F8" offset=".391"/><stop stop-color="#47A8F8" offset=".398"/><stop stop-color="#47A7F8" offset=".406"/><stop stop-color="#47A6F8" offset=".414"/><stop stop-color="#46A5F8" offset=".422"/><stop stop-color="#46A4F8" offset=".43"/><stop stop-color="#45A4F8" offset=".438"/><stop stop-color="#45A3F8" offset=".445"/><stop stop-color="#45A2F8" offset=".453"/><stop stop-color="#44A2F9" offset=".461"/><stop stop-color="#44A1F9" offset=".469"/><stop stop-color="#44A0F9" offset=".477"/><stop stop-color="#43A0F9" offset=".484"/><stop stop-color="#439FF9" offset=".492"/><stop stop-color="#429FF9" offset=".5"/><stop stop-color="#429EF9" offset=".508"/><stop stop-color="#429DF9" offset=".516"/><stop stop-color="#419DF9" offset=".523"/><stop stop-color="#419CF9" offset=".531"/><stop stop-color="#419BF9" offset=".539"/><stop stop-color="#409BFA" offset=".547"/><stop stop-color="#409AFA" offset=".555"/><stop stop-color="#4099FA" offset=".563"/><stop stop-color="#3F99FA" offset=".57"/><stop stop-color="#3F98FA" offset=".578"/><stop stop-color="#3E97FA" offset=".586"/><stop stop-color="#3E97FA" offset=".594"/><stop stop-color="#3E96FA" offset=".602"/><stop stop-color="#3D96FA" offset=".609"/><stop stop-color="#3D95FA" offset=".617"/><stop stop-color="#3D94FA" offset=".625"/><stop stop-color="#3C94FB" offset=".628"/><stop stop-color="#3C93FB" offset=".633"/><stop stop-color="#3C93FB" offset=".641"/><stop stop-color="#3C92FB" offset=".648"/><stop stop-color="#3B92FB" offset=".656"/><stop stop-color="#3B91FB" offset=".672"/><stop stop-color="#3A90FB" offset=".688"/><stop stop-color="#3A8FFB" offset=".703"/><stop stop-color="#3A8EFB" offset=".719"/><stop stop-color="#398EFB" offset=".734"/><stop stop-color="#398DFB" offset=".75"/><stop stop-color="#388CFB" offset=".766"/><stop stop-color="#388BFB" offset=".781"/><stop stop-color="#388BFB" offset=".797"/><stop stop-color="#378AFC" offset=".813"/><stop stop-color="#3789FC" offset=".828"/><stop stop-color="#3788FC" offset=".844"/><stop stop-color="#3687FC" offset=".859"/><stop stop-color="#3687FC" offset=".875"/><stop stop-color="#3586FC" offset=".891"/><stop stop-color="#3585FC" offset=".906"/><stop stop-color="#3585FC" offset=".938"/><stop stop-color="#3584FC" offset=".969"/><stop stop-color="#3484FC" offset="1"/></linearGradient><linearGradient x1="47.106" gradientTransform="matrix(1.15464 0 0 1.15197 60.163 115.634)" xmlns:xlink="http://www.w3.org/1999/xlink" y1="41.128" x2="59.87" gradientUnits="userSpaceOnUse" y2="88.483" xlink:type="simple" xlink:actuate="onLoad" id="f" xlink:show="other"><stop stop-color="#3D95FA" offset="0"/><stop stop-color="#3D95FA" offset=".016"/><stop stop-color="#3D94FA" offset=".031"/><stop stop-color="#3C93FB" offset=".047"/><stop stop-color="#3C93FB" offset=".063"/><stop stop-color="#3B92FB" offset=".078"/><stop stop-color="#3B91FB" offset=".094"/><stop stop-color="#3B90FB" offset=".125"/><stop stop-color="#3A90FB" offset=".156"/><stop stop-color="#3A8FFB" offset=".188"/><stop stop-color="#398EFB" offset=".219"/><stop stop-color="#398DFB" offset=".25"/><stop stop-color="#388CFB" offset=".281"/><stop stop-color="#388BFB" offset=".293"/><stop stop-color="#388BFB" offset=".313"/><stop stop-color="#388AFC" offset=".344"/><stop stop-color="#3789FC" offset=".375"/><stop stop-color="#3788FC" offset=".406"/><stop stop-color="#3688FC" offset=".438"/><stop stop-color="#3687FC" offset=".469"/><stop stop-color="#3586FC" offset=".5"/><stop stop-color="#3585FC" offset=".563"/><stop stop-color="#3584FC" offset=".625"/><stop stop-color="#3484FC" offset=".688"/><stop stop-color="#3483FC" offset=".707"/><stop stop-color="#3483FD" offset=".75"/><stop stop-color="#3482FD" offset=".813"/><stop stop-color="#3382FD" offset=".875"/><stop stop-color="#3381FD" offset="1"/></linearGradient><linearGradient x1="88.051" gradientTransform="matrix(1.15464 0 0 1.15197 60.163 115.634)" xmlns:xlink="http://www.w3.org/1999/xlink" y1="42.787" x2="109.286" gradientUnits="userSpaceOnUse" y2="121.571" xlink:type="simple" xlink:actuate="onLoad" id="i" xlink:show="other"><stop stop-color="#398CFB" offset="0"/><stop stop-color="#388CFB" offset=".016"/><stop stop-color="#388BFB" offset=".031"/><stop stop-color="#388BFB" offset=".047"/><stop stop-color="#378AFC" offset=".063"/><stop stop-color="#3789FC" offset=".078"/><stop stop-color="#3788FC" offset=".094"/><stop stop-color="#3688FC" offset=".109"/><stop stop-color="#3687FC" offset=".125"/><stop stop-color="#3686FC" offset=".141"/><stop stop-color="#3585FC" offset=".156"/><stop stop-color="#3585FC" offset=".161"/><stop stop-color="#3585FC" offset=".188"/><stop stop-color="#3584FC" offset=".219"/><stop stop-color="#3484FC" offset=".25"/><stop stop-color="#3483FC" offset=".281"/><stop stop-color="#3483FD" offset=".313"/><stop stop-color="#3482FD" offset=".344"/><stop stop-color="#3382FD" offset=".375"/><stop stop-color="#3381FD" offset=".5"/><stop stop-color="#3381FD" offset=".839"/><stop stop-color="#3381FD" offset="1"/></linearGradient></defs><g clip-path="url(#a)"><g clip-path="url(#b)"><path fill="url(#c)" d="M 60.164062 115.632812 L 60.164062 179.601562 L 201.296875 179.601562 L 201.296875 115.632812 Z M 60.164062 115.632812"/></g></g><g clip-path="url(#d)"><g clip-path="url(#e)"><path fill="url(#f)" d="M 85.414062 170.847656 L 85.414062 212.226562 L 149.140625 212.226562 L 149.140625 170.847656 Z M 85.414062 170.847656"/></g></g><g clip-path="url(#g)"><g clip-path="url(#h)"><path fill="url(#i)" d="M 142.027344 170.25 L 142.027344 251.902344 L 200.40625 251.902344 L 200.40625 170.25 Z M 142.027344 170.25"/></g></g><g fill="#767676"><use x="215.269" y="230.718" xmlns:xlink="http://www.w3.org/1999/xlink" xlink:href="#j" xlink:type="simple" xlink:actuate="onLoad" xlink:show="embed"/></g><g fill="#767676"><use x="240.621" y="230.718" xmlns:xlink="http://www.w3.org/1999/xlink" xlink:href="#k" xlink:type="simple" xlink:actuate="onLoad" xlink:show="embed"/></g><g fill="#767676"><use x="263.231" y="230.718" xmlns:xlink="http://www.w3.org/1999/xlink" xlink:href="#l" xlink:type="simple" xlink:actuate="onLoad" xlink:show="embed"/></g><g fill="#767676"><use x="283.607" y="230.718" xmlns:xlink="http://www.w3.org/1999/xlink" xlink:href="#m" xlink:type="simple" xlink:actuate="onLoad" xlink:show="embed"/></g><g fill="#3381FD"><use x="212.362" y="252.079" xmlns:xlink="http://www.w3.org/1999/xlink" xlink:href="#n" xlink:type="simple" xlink:actuate="onLoad" xlink:show="embed"/></g><g fill="#3381FD"><use x="223.115" y="252.079" xmlns:xlink="http://www.w3.org/1999/xlink" xlink:href="#o" xlink:type="simple" xlink:actuate="onLoad" xlink:show="embed"/></g><g fill="#3381FD"><use x="235.545" y="252.079" xmlns:xlink="http://www.w3.org/1999/xlink" xlink:href="#p" xlink:type="simple" xlink:actuate="onLoad" xlink:show="embed"/></g><g fill="#3381FD"><use x="247.465" y="252.079" xmlns:xlink="http://www.w3.org/1999/xlink" xlink:href="#q" xlink:type="simple" xlink:actuate="onLoad" xlink:show="embed"/></g></svg>